<svg width="32" height="24" viewBox="0 0 32 24" fill="none" xmlns="http://www.w3.org/2000/svg">
<path d="M7.6001 13.0313C7.6001 11.297 8.07025 9.56791 9.01055 7.84403C9.95084 6.12015 11.2359 4.58955 12.8658 3.25224C13.1792 2.9806 13.5188 2.92836 13.8844 3.09552C14.2501 3.26269 14.4329 3.53433 14.4329 3.91045V4.06716C14.4329 4.92388 14.8508 5.71269 15.6867 6.43358C16.5225 7.15448 17.4732 7.51493 18.5389 7.51493C18.9359 7.51493 19.3277 7.45224 19.7143 7.32687C20.1008 7.20149 20.4717 7.02388 20.827 6.79403C20.9941 6.68955 21.1665 6.64254 21.3441 6.65298C21.5217 6.66343 21.6837 6.73134 21.8299 6.85672C22.6449 7.65075 23.277 8.58582 23.7262 9.66194C24.1755 10.7381 24.4001 11.8612 24.4001 13.0313C24.4001 14.9746 23.8255 16.6828 22.6762 18.156C21.527 19.6291 20.0643 20.6164 18.2882 21.1179C18.7688 20.7627 19.1449 20.3239 19.4165 19.8015C19.6882 19.2791 19.824 18.7149 19.824 18.109C19.824 17.6284 19.7299 17.1582 19.5419 16.6985C19.3538 16.2388 19.0822 15.8313 18.727 15.4761L16.0001 12.8119L13.3046 15.4761C12.9494 15.8313 12.6725 16.2336 12.474 16.6828C12.2755 17.1321 12.1762 17.6075 12.1762 18.109C12.1762 18.7149 12.312 19.2791 12.5837 19.8015C12.8553 20.3239 13.2314 20.7627 13.712 21.1179C11.9359 20.6164 10.4732 19.6291 9.32398 18.156C8.17472 16.6828 7.6001 14.9746 7.6001 13.0313ZM16.0001 14.0343L18.1001 16.103C18.3717 16.3746 18.5807 16.6776 18.727 17.0119C18.8732 17.3463 18.9464 17.7119 18.9464 18.109C18.9464 18.903 18.6591 19.5821 18.0844 20.1463C17.5098 20.7104 16.815 20.9925 16.0001 20.9925C15.1852 20.9925 14.4904 20.7104 13.9158 20.1463C13.3411 19.5821 13.0538 18.903 13.0538 18.109C13.0538 17.7328 13.1217 17.3776 13.2576 17.0433C13.3934 16.709 13.6076 16.3955 13.9001 16.103L16.0001 14.0343Z" fill="#000928" fill-opacity="0.87"/>
</svg>
