<svg width="32" height="24" viewBox="0 0 32 24" fill="none" xmlns="http://www.w3.org/2000/svg">
<path d="M16.0001 21.4313C13.6598 21.4313 11.6747 20.6164 10.0449 18.9866C8.41502 17.3567 7.6001 15.3716 7.6001 13.0313C7.6001 11.297 8.07025 9.56791 9.01055 7.84403C9.95084 6.12015 11.2359 4.58955 12.8658 3.25224C13.1792 2.9806 13.5188 2.92836 13.8844 3.09552C14.2501 3.26269 14.4329 3.53433 14.4329 3.91045V4.06716C14.4329 4.92388 14.8508 5.71269 15.6867 6.43358C16.5225 7.15448 17.4732 7.51493 18.5389 7.51493C18.9359 7.51493 19.3277 7.45224 19.7143 7.32687C20.1008 7.20149 20.4717 7.02388 20.827 6.79403C20.9941 6.68955 21.1665 6.64254 21.3441 6.65299C21.5217 6.66343 21.6837 6.73134 21.8299 6.85672C22.6449 7.65075 23.277 8.58582 23.7262 9.66194C24.1755 10.7381 24.4001 11.8612 24.4001 13.0313C24.4001 15.3716 23.5852 17.3567 21.9553 18.9866C20.3255 20.6164 18.3404 21.4313 16.0001 21.4313ZM8.47771 13.0313C8.47771 14.5776 8.91129 15.9881 9.77846 17.2627C10.6456 18.5373 11.8001 19.4567 13.2419 20.0209C13.0329 19.7284 12.8762 19.4201 12.7717 19.0963C12.6673 18.7724 12.615 18.4433 12.615 18.109C12.615 17.6701 12.7038 17.2522 12.8814 16.8552C13.0591 16.4582 13.3046 16.103 13.618 15.7896L16.0001 13.4388L18.4135 15.7896C18.727 16.103 18.9673 16.4582 19.1344 16.8552C19.3016 17.2522 19.3852 17.6701 19.3852 18.109C19.3852 18.4433 19.3329 18.7724 19.2285 19.0963C19.124 19.4201 18.9673 19.7284 18.7583 20.0209C20.2001 19.4567 21.3546 18.5373 22.2217 17.2627C23.0889 15.9881 23.5225 14.5776 23.5225 13.0313C23.5225 11.9866 23.3292 10.9993 22.9426 10.0694C22.5561 9.13955 21.9971 8.30896 21.2658 7.57761C20.8479 7.84925 20.4091 8.05298 19.9494 8.18881C19.4896 8.32463 19.0195 8.39254 18.5389 8.39254C17.2225 8.39254 16.0889 7.96418 15.1382 7.10746C14.1874 6.25075 13.6494 5.17463 13.524 3.8791C11.8941 5.23731 10.6456 6.71045 9.77846 8.29851C8.91129 9.88657 8.47771 11.4642 8.47771 13.0313ZM16.0001 14.6612L14.2135 16.4164C13.9837 16.6463 13.8061 16.9075 13.6807 17.2C13.5553 17.4925 13.4926 17.7955 13.4926 18.109C13.4926 18.7776 13.7382 19.3522 14.2292 19.8328C14.7202 20.3134 15.3105 20.5537 16.0001 20.5537C16.6896 20.5537 17.2799 20.3134 17.771 19.8328C18.262 19.3522 18.5076 18.7776 18.5076 18.109C18.5076 17.7746 18.4449 17.4664 18.3195 17.1843C18.1941 16.9022 18.0165 16.6463 17.7867 16.4164L16.0001 14.6612Z" fill="#000928" fill-opacity="0.5"/>
</svg>
